<?xml version="1.0" encoding="UTF-8"?>
<svg id="uuid-7d011009-335e-4c70-8089-55338cf9794d" data-name="Layer 2" xmlns="http://www.w3.org/2000/svg" xmlns:xlink="http://www.w3.org/1999/xlink" viewBox="0 0 1280 799">
  <defs>
    <pattern id="uuid-ee3620df-cf30-48a6-99e8-710403262d48" data-name="New Pattern 3" x="0" y="0" width="200.44072" height="299.86099" patternTransform="translate(-1041 88)" patternUnits="userSpaceOnUse" viewBox="0 0 200.44072 299.86099">
      <g>
        <rect y="0" width="200.44072" height="299.86099" style="fill: none; stroke-width: 0px;"/>
        <g>
          <rect x="200.38347" y="77.37064" width="22.20998" height="22.53187" style="fill: #d9ebf7; stroke-width: 0px;"/>
          <rect x="200.38347" y="49.84958" width="22.20998" height="22.20998" style="fill: #d9ebf7; stroke-width: 0px;"/>
          <polygon points="200.38347 72.05956 219.53556 72.05956 222.59345 74.79557 200.38347 74.63463 200.38347 72.05956" style="fill: #c9b1fc; stroke-width: 0px;"/>
          <polygon points="200.38347 77.37064 219.83747 77.37064 222.59345 74.79557 200.38347 74.63463 200.38347 77.37064" style="fill: #caa93b; stroke-width: 0px;"/>
          <polygon points="175.29244 77.5173 172.60471 80.53174 172.50654 77.50604 169.54681 77.47385 172.55643 74.56724 169.65465 71.44175 172.44377 71.67994 172.60471 68.78298 175.46787 71.79099 178.51771 68.88277 178.4469 71.84088 181.29396 71.79421 178.20548 74.73944 181.03323 77.78768 178.07673 77.67824 178.08478 80.52531 175.29244 77.5173" style="fill: #fcf9be; stroke-width: 0px;"/>
          <rect x="178.23767" y="49.95278" width="22.20998" height="22.20998" style="fill: #d9ebf7; stroke-width: 0px;"/>
          <polygon points="200.44766 72.00182 180.81274 72.16276 178.07673 74.73783 200.44766 74.73783 200.44766 72.00182" style="fill: #eec1e8; stroke-width: 0px;"/>
          <polygon points="200.44766 77.63479 180.97369 77.79573 178.07673 74.73783 200.44766 74.73783 200.44766 77.63479" style="fill: #c9b1fc; stroke-width: 0px;"/>
          <polygon points="172.60471 49.95278 172.60471 68.78298 175.50166 71.84088 175.50166 49.95278 172.60471 49.95278" style="fill: #eec1e8; stroke-width: 0px;"/>
          <polygon points="178.23767 49.95278 178.23767 69.26581 175.50166 71.84088 175.50166 49.95278 178.23767 49.95278" style="fill: #ff8d55; stroke-width: 0px;"/>
          <polygon points="150.39473 77.47385 169.54681 77.47385 172.60471 74.57689 150.39473 74.57689 150.39473 77.47385" style="fill: #f25d30; stroke-width: 0px;"/>
          <polygon points="150.39473 72.00182 169.70775 71.519 172.60471 74.57689 150.39473 74.57689 150.39473 72.00182" style="fill: #7892b4; stroke-width: 0px;"/>
          <rect x="150.39473" y="50.01052" width="22.20998" height="21.9913" style="fill: #d9ebf7; stroke-width: 0px;"/>
          <polygon points="177.85161 100.06345 177.91579 77.47385 200.44766 77.47385 200.38347 99.90251 177.85161 100.06345" style="fill: #d9ebf7; stroke-width: 0px;"/>
          <polygon points="150.33054 100.06345 150.39473 77.47385 172.60471 77.47385 172.54052 100.06345 150.33054 100.06345" style="fill: #d9ebf7; stroke-width: 0px;"/>
          <polygon points="172.54052 100.06345 172.60471 80.53174 175.34072 77.47385 175.11559 100.06345 172.54052 100.06345" style="fill: #c9b1fc; stroke-width: 0px;"/>
          <polygon points="177.85161 100.06345 177.91579 80.22983 175.34072 77.47385 175.11559 100.06345 177.85161 100.06345" style="fill: #caa93b; stroke-width: 0px;"/>
          <polygon points="200.26186 22.28006 219.41395 22.28006 222.47184 25.17702 200.26186 25.17702 200.26186 22.28006" style="fill: #f25d30; stroke-width: 0px;"/>
          <polygon points="200.26186 27.75209 219.57489 28.23491 222.47184 25.17702 200.26186 25.17702 200.26186 27.75209" style="fill: #7892b4; stroke-width: 0px;"/>
          <rect x="200.26186" y="27.75209" width="22.20998" height="22.20998" style="fill: #d9ebf7; stroke-width: 0px;"/>
          <rect x="200.26186" y=".07008" width="22.20998" height="22.20998" style="fill: #d9ebf7; stroke-width: 0px;"/>
          <polygon points="172.63867 25.15522 169.62423 27.84295 172.64994 27.94112 172.68213 30.90084 175.58874 27.89123 178.71423 30.79301 178.47604 28.00389 181.37299 27.84295 178.36499 24.97978 181.27321 21.92994 178.3151 22.00076 178.36176 19.1537 175.41653 22.24217 172.36829 19.41442 172.47773 22.37092 169.63067 22.36288 172.63867 25.15522" style="fill: #fcf9be; stroke-width: 0px;"/>
          <rect x="177.99321" y="0" width="22.20998" height="22.20998" style="fill: #d9ebf7; stroke-width: 0px;"/>
          <polygon points="178.15415 0 177.99321 19.63491 175.41814 22.37092 175.41814 0 178.15415 0" style="fill: #eec1e8; stroke-width: 0px;"/>
          <polygon points="172.52119 0 172.36024 19.47397 175.41814 22.37092 175.41814 0 172.52119 0" style="fill: #c9b1fc; stroke-width: 0px;"/>
          <polygon points="200.20319 27.84295 181.37299 27.84295 178.3151 24.94599 200.20319 24.94599 200.20319 27.84295" style="fill: #f25d30; stroke-width: 0px;"/>
          <polygon points="200.20319 22.20998 180.89017 22.20998 178.3151 24.94599 200.20319 24.94599 200.20319 22.20998" style="fill: #ff8d55; stroke-width: 0px;"/>
          <polygon points="172.68213 50.05293 172.68213 30.90084 175.57908 27.84295 175.57908 50.05293 172.68213 50.05293" style="fill: #eec1e8; stroke-width: 0px;"/>
          <polygon points="178.15415 50.05293 178.63698 30.7399 175.57908 27.84295 175.57908 50.05293 178.15415 50.05293" style="fill: #7892b4; stroke-width: 0px;"/>
          <rect x="178.15415" y="27.84295" width="22.20998" height="22.20998" style="fill: #d9ebf7; stroke-width: 0px;"/>
          <rect x="150.47215" y="0" width="22.20998" height="22.53187" style="fill: #d9ebf7; stroke-width: 0px;"/>
          <rect x="150.47215" y="27.84295" width="22.20998" height="22.20998" style="fill: #d9ebf7; stroke-width: 0px;"/>
          <polygon points="150.47215 27.84295 169.62423 27.84295 172.68213 25.10694 150.47215 25.26788 150.47215 27.84295" style="fill: #7892b4; stroke-width: 0px;"/>
          <polygon points="150.47215 22.53187 169.92615 22.53187 172.68213 25.10694 150.47215 25.26788 150.47215 22.53187" style="fill: #caa93b; stroke-width: 0px;"/>
          <polygon points="175.52855 277.31484 172.84082 280.32928 172.74265 277.30357 169.78293 277.27138 172.79254 274.36477 169.89076 271.23928 172.67988 271.47747 172.84082 268.58052 175.70398 271.58852 178.75383 268.6803 178.68301 271.63842 181.53007 271.59175 178.4416 274.53698 181.26935 277.58522 178.31285 277.47578 178.32089 280.32284 175.52855 277.31484" style="fill: #fcf9be; stroke-width: 0px;"/>
          <rect x="178.47379" y="249.75032" width="22.20998" height="22.20998" style="fill: #d9ebf7; stroke-width: 0px;"/>
          <polygon points="200.68377 271.79936 181.04886 271.9603 178.31285 274.53537 200.68377 274.53537 200.68377 271.79936" style="fill: #eec1e8; stroke-width: 0px;"/>
          <polygon points="200.68377 277.43232 181.2098 277.59327 178.31285 274.53537 200.68377 274.53537 200.68377 277.43232" style="fill: #c9b1fc; stroke-width: 0px;"/>
          <polygon points="172.84082 249.75032 172.84082 268.58052 175.73778 271.63842 175.73778 249.75032 172.84082 249.75032" style="fill: #eec1e8; stroke-width: 0px;"/>
          <polygon points="178.47379 249.75032 178.47379 269.06335 175.73778 271.63842 175.73778 249.75032 178.47379 249.75032" style="fill: #ff8d55; stroke-width: 0px;"/>
          <polygon points="150.63084 277.27138 169.78293 277.27138 172.84082 274.37443 150.63084 274.37443 150.63084 277.27138" style="fill: #f25d30; stroke-width: 0px;"/>
          <polygon points="150.63084 271.79936 169.94387 271.31653 172.84082 274.37443 150.63084 274.37443 150.63084 271.79936" style="fill: #7892b4; stroke-width: 0px;"/>
          <rect x="150.63084" y="249.80806" width="22.20998" height="21.9913" style="fill: #d9ebf7; stroke-width: 0px;"/>
          <polygon points="178.08772 299.86099 178.1519 277.27138 200.68377 277.27138 200.61959 299.70005 178.08772 299.86099" style="fill: #d9ebf7; stroke-width: 0px;"/>
          <polygon points="150.56666 299.86099 150.63084 277.27138 172.84082 277.27138 172.77664 299.86099 150.56666 299.86099" style="fill: #d9ebf7; stroke-width: 0px;"/>
          <polygon points="172.77664 299.86099 172.84082 280.32928 175.57683 277.27138 175.35171 299.86099 172.77664 299.86099" style="fill: #c9b1fc; stroke-width: 0px;"/>
          <polygon points="178.08772 299.86099 178.1519 280.02737 175.57683 277.27138 175.35171 299.86099 178.08772 299.86099" style="fill: #caa93b; stroke-width: 0px;"/>
          <polygon points="172.87479 224.95275 169.86035 227.64048 172.88605 227.73866 172.91824 230.69838 175.82485 227.68876 178.95034 230.59054 178.71215 227.80143 181.60911 227.64048 178.6011 224.77732 181.50932 221.72748 178.55121 221.7983 178.59788 218.95123 175.65264 222.03971 172.6044 219.21196 172.71384 222.16846 169.86678 222.16041 172.87479 224.95275" style="fill: #fcf9be; stroke-width: 0px;"/>
          <rect x="178.22933" y="199.79754" width="22.20998" height="22.20998" style="fill: #d9ebf7; stroke-width: 0px;"/>
          <polygon points="178.39027 199.79754 178.22933 219.43245 175.65426 222.16846 175.65426 199.79754 178.39027 199.79754" style="fill: #eec1e8; stroke-width: 0px;"/>
          <polygon points="172.7573 199.79754 172.59636 219.27151 175.65426 222.16846 175.65426 199.79754 172.7573 199.79754" style="fill: #c9b1fc; stroke-width: 0px;"/>
          <polygon points="200.43931 227.64048 181.60911 227.64048 178.55121 224.74353 200.43931 224.74353 200.43931 227.64048" style="fill: #f25d30; stroke-width: 0px;"/>
          <polygon points="200.43931 222.00752 181.12628 222.00752 178.55121 224.74353 200.43931 224.74353 200.43931 222.00752" style="fill: #ff8d55; stroke-width: 0px;"/>
          <polygon points="172.91824 249.85047 172.91824 230.69838 175.8152 227.64048 175.8152 249.85047 172.91824 249.85047" style="fill: #eec1e8; stroke-width: 0px;"/>
          <polygon points="178.39027 249.85047 178.87309 230.53744 175.8152 227.64048 175.8152 249.85047 178.39027 249.85047" style="fill: #7892b4; stroke-width: 0px;"/>
          <rect x="178.39027" y="227.64048" width="22.20998" height="22.20998" style="fill: #d9ebf7; stroke-width: 0px;"/>
          <rect x="150.70826" y="199.79754" width="22.20998" height="22.53187" style="fill: #d9ebf7; stroke-width: 0px;"/>
          <rect x="150.70826" y="227.64048" width="22.20998" height="22.20998" style="fill: #d9ebf7; stroke-width: 0px;"/>
          <polygon points="150.70826 227.64048 169.86035 227.64048 172.91824 224.90447 150.70826 225.06541 150.70826 227.64048" style="fill: #7892b4; stroke-width: 0px;"/>
          <polygon points="150.70826 222.3294 170.16226 222.3294 172.91824 224.90447 150.70826 225.06541 150.70826 222.3294" style="fill: #caa93b; stroke-width: 0px;"/>
          <polygon points="175.74979 127.62578 178.43752 130.64022 178.53569 127.61452 181.49542 127.58233 178.4858 124.67572 181.38758 121.55023 178.59846 121.78842 178.43752 118.89146 175.57436 121.89947 172.52452 118.99125 172.59533 121.94936 169.74827 121.90269 172.83674 124.84792 170.00899 127.89616 172.9655 127.78672 172.95745 130.63379 175.74979 127.62578" style="fill: #fcf9be; stroke-width: 0px;"/>
          <rect x="150.59457" y="100.06126" width="22.20998" height="22.20998" style="fill: #d9ebf7; stroke-width: 0px;"/>
          <polygon points="150.59457 122.1103 170.22948 122.27124 172.9655 124.84631 150.59457 124.84631 150.59457 122.1103" style="fill: #eec1e8; stroke-width: 0px;"/>
          <polygon points="150.59457 127.74327 170.06854 127.90421 172.9655 124.84631 150.59457 124.84631 150.59457 127.74327" style="fill: #c9b1fc; stroke-width: 0px;"/>
          <polygon points="178.43752 100.06126 178.43752 118.89146 175.54057 121.94936 175.54057 100.06126 178.43752 100.06126" style="fill: #eec1e8; stroke-width: 0px;"/>
          <polygon points="172.80455 100.06126 172.80455 119.37429 175.54057 121.94936 175.54057 100.06126 172.80455 100.06126" style="fill: #ff8d55; stroke-width: 0px;"/>
          <polygon points="200.6475 127.58233 181.49542 127.58233 178.43752 124.68537 200.6475 124.68537 200.6475 127.58233" style="fill: #f25d30; stroke-width: 0px;"/>
          <polygon points="200.6475 122.1103 181.33447 121.62748 178.43752 124.68537 200.6475 124.68537 200.6475 122.1103" style="fill: #7892b4; stroke-width: 0px;"/>
          <rect x="178.43752" y="99.90032" width="22.20998" height="22.20998" style="fill: #d9ebf7; stroke-width: 0px;"/>
          <rect x="150.59457" y="127.58233" width="22.53187" height="22.20998" style="fill: #d9ebf7; stroke-width: 0px;"/>
          <rect x="178.43752" y="127.58233" width="22.20998" height="22.20998" style="fill: #d9ebf7; stroke-width: 0px;"/>
          <polygon points="178.43752 149.79231 178.43752 130.64022 175.70151 127.58233 175.86245 149.79231 178.43752 149.79231" style="fill: #c9b1fc; stroke-width: 0px;"/>
          <polygon points="173.12644 149.79231 173.12644 130.33831 175.70151 127.58233 175.86245 149.79231 173.12644 149.79231" style="fill: #caa93b; stroke-width: 0px;"/>
          <polygon points="172.97978 174.88334 169.96534 177.57107 172.99105 177.66924 173.02324 180.62897 175.92985 177.61935 179.05534 180.52113 178.81714 177.73201 181.7141 177.57107 178.70609 174.70791 181.61432 171.65807 178.6562 171.72888 178.70287 168.88182 175.75764 171.97029 172.7094 169.14254 172.81884 172.09905 169.97178 172.091 172.97978 174.88334" style="fill: #fcf9be; stroke-width: 0px;"/>
          <rect x="178.33432" y="149.72812" width="22.20998" height="22.20998" style="fill: #d9ebf7; stroke-width: 0px;"/>
          <polygon points="178.49526 149.72812 178.33432 169.36303 175.75925 172.09905 175.75925 149.72812 178.49526 149.72812" style="fill: #eec1e8; stroke-width: 0px;"/>
          <polygon points="172.86229 149.72812 172.70135 169.20209 175.75925 172.09905 175.75925 149.72812 172.86229 149.72812" style="fill: #c9b1fc; stroke-width: 0px;"/>
          <polygon points="200.5443 177.57107 181.7141 177.57107 178.6562 174.67412 200.5443 174.67412 200.5443 177.57107" style="fill: #eec1e8; stroke-width: 0px;"/>
          <polygon points="200.5443 171.9381 181.23127 171.9381 178.6562 174.67412 200.5443 174.67412 200.5443 171.9381" style="fill: #ff8d55; stroke-width: 0px;"/>
          <polygon points="173.02324 199.78105 173.02324 180.62897 175.92019 177.57107 175.92019 199.78105 173.02324 199.78105" style="fill: #f25d30; stroke-width: 0px;"/>
          <polygon points="178.49526 199.78105 178.97809 180.46802 175.92019 177.57107 175.92019 199.78105 178.49526 199.78105" style="fill: #7892b4; stroke-width: 0px;"/>
          <rect x="178.49526" y="177.57107" width="21.9913" height="22.20998" style="fill: #d9ebf7; stroke-width: 0px;"/>
          <polygon points="150.43363 172.32417 173.02324 172.25999 173.02324 149.72812 150.59457 149.79231 150.43363 172.32417" style="fill: #d9ebf7; stroke-width: 0px;"/>
          <polygon points="150.43363 199.84524 173.02324 199.78105 173.02324 177.57107 150.43363 177.63525 150.43363 199.84524" style="fill: #d9ebf7; stroke-width: 0px;"/>
          <polygon points="150.43363 177.63525 169.96534 177.57107 173.02324 174.83506 150.43363 175.06018 150.43363 177.63525" style="fill: #c9b1fc; stroke-width: 0px;"/>
          <polygon points="150.43363 172.32417 170.26725 172.25999 173.02324 174.83506 150.43363 175.06018 150.43363 172.32417" style="fill: #caa93b; stroke-width: 0px;"/>
        </g>
        <g>
          <polygon points="122.32963 74.74729 119.3152 72.05956 122.3409 71.96139 122.37309 69.00167 125.2797 72.01128 128.40519 69.1095 128.167 71.89862 131.06395 72.05956 128.05595 74.92272 130.96417 77.97257 128.00606 77.90175 128.05273 80.74881 125.10749 77.66034 122.05925 80.48809 122.16869 77.53159 119.32163 77.53963 122.32963 74.74729" style="fill: #fcf9be; stroke-width: 0px;"/>
          <rect x="127.68417" y="77.69253" width="22.20998" height="22.20998" style="fill: #d9ebf7; stroke-width: 0px;"/>
          <polygon points="127.84512 99.90251 127.68417 80.2676 125.1091 77.53159 125.1091 99.90251 127.84512 99.90251" style="fill: #eec1e8; stroke-width: 0px;"/>
          <polygon points="122.21215 99.90251 122.05121 80.42854 125.1091 77.53159 125.1091 99.90251 122.21215 99.90251" style="fill: #c9b1fc; stroke-width: 0px;"/>
          <polygon points="149.89415 72.05956 131.06395 72.05956 128.00606 74.95652 149.89415 74.95652 149.89415 72.05956" style="fill: #eec1e8; stroke-width: 0px;"/>
          <polygon points="149.89415 77.69253 130.58113 77.69253 128.00606 74.95652 149.89415 74.95652 149.89415 77.69253" style="fill: #ff8d55; stroke-width: 0px;"/>
          <polygon points="122.37309 49.84958 122.37309 69.00167 125.27004 72.05956 125.27005 49.84958 122.37309 49.84958" style="fill: #f25d30; stroke-width: 0px;"/>
          <polygon points="127.84512 49.84958 128.32794 69.16261 125.27004 72.05956 125.27005 49.84958 127.84512 49.84958" style="fill: #7892b4; stroke-width: 0px;"/>
          <rect x="127.84512" y="49.84958" width="22.20998" height="22.20998" style="fill: #d9ebf7; stroke-width: 0px;"/>
          <rect x="100.16311" y="77.37064" width="22.20998" height="22.53187" style="fill: #d9ebf7; stroke-width: 0px;"/>
          <rect x="100.16311" y="49.84958" width="22.20998" height="22.20998" style="fill: #d9ebf7; stroke-width: 0px;"/>
          <polygon points="100.16311 72.05956 119.3152 72.05956 122.37309 74.79557 100.16311 74.63463 100.16311 72.05956" style="fill: #c9b1fc; stroke-width: 0px;"/>
          <polygon points="100.16311 77.37064 119.61711 77.37064 122.37309 74.79557 100.16311 74.63463 100.16311 77.37064" style="fill: #caa93b; stroke-width: 0px;"/>
          <polygon points="75.07208 77.5173 72.38435 80.53174 72.28617 77.50604 69.32645 77.47385 72.33607 74.56724 69.43429 71.44175 72.2234 71.67994 72.38435 68.78298 75.24751 71.79099 78.29735 68.88277 78.22653 71.84088 81.0736 71.79421 77.98512 74.73944 80.81287 77.78768 77.85637 77.67824 77.86442 80.52531 75.07208 77.5173" style="fill: #fcf9be; stroke-width: 0px;"/>
          <rect x="78.01731" y="49.95278" width="22.20998" height="22.20998" style="fill: #d9ebf7; stroke-width: 0px;"/>
          <polygon points="100.22729 72.00182 80.59238 72.16276 77.85637 74.73783 100.22729 74.73783 100.22729 72.00182" style="fill: #eec1e8; stroke-width: 0px;"/>
          <polygon points="100.22729 77.63479 80.75332 77.79573 77.85637 74.73783 100.22729 74.73783 100.22729 77.63479" style="fill: #c9b1fc; stroke-width: 0px;"/>
          <polygon points="72.38435 49.95278 72.38435 68.78298 75.2813 71.84088 75.2813 49.95278 72.38435 49.95278" style="fill: #eec1e8; stroke-width: 0px;"/>
          <polygon points="78.01731 49.95278 78.01731 69.26581 75.2813 71.84088 75.2813 49.95278 78.01731 49.95278" style="fill: #ff8d55; stroke-width: 0px;"/>
          <polygon points="50.17436 77.47385 69.32645 77.47385 72.38435 74.57689 50.17436 74.57689 50.17436 77.47385" style="fill: #f25d30; stroke-width: 0px;"/>
          <polygon points="50.17436 72.00182 69.48739 71.519 72.38435 74.57689 50.17436 74.57689 50.17436 72.00182" style="fill: #7892b4; stroke-width: 0px;"/>
          <rect x="50.17436" y="50.01052" width="22.20998" height="21.9913" style="fill: #d9ebf7; stroke-width: 0px;"/>
          <polygon points="77.63124 100.06345 77.69543 77.47385 100.22729 77.47385 100.16311 99.90251 77.63124 100.06345" style="fill: #d9ebf7; stroke-width: 0px;"/>
          <polygon points="50.11018 100.06345 50.17436 77.47385 72.38435 77.47385 72.32016 100.06345 50.11018 100.06345" style="fill: #d9ebf7; stroke-width: 0px;"/>
          <polygon points="72.32016 100.06345 72.38435 80.53174 75.12036 77.47385 74.89523 100.06345 72.32016 100.06345" style="fill: #c9b1fc; stroke-width: 0px;"/>
          <polygon points="77.63124 100.06345 77.69543 80.22983 75.12036 77.47385 74.89523 100.06345 77.63124 100.06345" style="fill: #caa93b; stroke-width: 0px;"/>
          <polygon points="124.93921 22.2366 122.25148 19.22217 122.15331 22.24787 119.19359 22.28006 122.2032 25.18667 119.30142 28.31216 122.09054 28.07397 122.25148 30.97092 125.11464 27.96292 128.16448 30.87114 128.09367 27.91303 130.94073 27.9597 127.85226 25.01446 130.68001 21.96622 127.72351 22.07566 127.73155 19.2286 124.93921 22.2366" style="fill: #fcf9be; stroke-width: 0px;"/>
          <rect x="127.88445" y="27.59114" width="22.20998" height="22.20998" style="fill: #d9ebf7; stroke-width: 0px;"/>
          <polygon points="150.09443 27.75209 130.45952 27.59114 127.72351 25.01607 150.09443 25.01607 150.09443 27.75209" style="fill: #eec1e8; stroke-width: 0px;"/>
          <polygon points="150.09443 22.11912 130.62046 21.95818 127.72351 25.01607 150.09443 25.01607 150.09443 22.11912" style="fill: #c9b1fc; stroke-width: 0px;"/>
          <polygon points="122.25148 49.80113 122.25148 30.97092 125.14844 27.91303 125.14844 49.80113 122.25148 49.80113" style="fill: #eec1e8; stroke-width: 0px;"/>
          <polygon points="127.88445 49.80113 127.88445 30.4881 125.14844 27.91303 125.14844 49.80113 127.88445 49.80113" style="fill: #ff8d55; stroke-width: 0px;"/>
          <polygon points="100.0415 22.28006 119.19359 22.28006 122.25148 25.17702 100.0415 25.17702 100.0415 22.28006" style="fill: #f25d30; stroke-width: 0px;"/>
          <polygon points="100.0415 27.75209 119.35453 28.23491 122.25148 25.17702 100.0415 25.17702 100.0415 27.75209" style="fill: #7892b4; stroke-width: 0px;"/>
          <rect x="100.0415" y="27.75209" width="22.20998" height="22.20998" style="fill: #d9ebf7; stroke-width: 0px;"/>
          <rect x="127.56256" y=".07008" width="22.53187" height="22.20998" style="fill: #d9ebf7; stroke-width: 0px;"/>
          <rect x="100.0415" y=".07008" width="22.20998" height="22.20998" style="fill: #d9ebf7; stroke-width: 0px;"/>
          <polygon points="122.25148 .07008 122.25148 19.22217 124.98749 22.28006 124.82655 .07008 122.25148 .07008" style="fill: #c9b1fc; stroke-width: 0px;"/>
          <polygon points="127.56256 .07008 127.56256 19.52408 124.98749 22.28006 124.82655 .07008 127.56256 .07008" style="fill: #caa93b; stroke-width: 0px;"/>
          <polygon points="72.41831 25.15522 69.40387 27.84295 72.42958 27.94112 72.46177 30.90084 75.36838 27.89123 78.49387 30.79301 78.25568 28.00389 81.15263 27.84295 78.14462 24.97978 81.05285 21.92994 78.09473 22.00076 78.1414 19.1537 75.19617 22.24217 72.14793 19.41442 72.25737 22.37092 69.41031 22.36288 72.41831 25.15522" style="fill: #fcf9be; stroke-width: 0px;"/>
          <rect x="77.77285" y="0" width="22.20998" height="22.20998" style="fill: #d9ebf7; stroke-width: 0px;"/>
          <polygon points="77.93379 0 77.77285 19.63491 75.19778 22.37092 75.19778 0 77.93379 0" style="fill: #eec1e8; stroke-width: 0px;"/>
          <polygon points="72.30082 0 72.13988 19.47397 75.19778 22.37092 75.19778 0 72.30082 0" style="fill: #c9b1fc; stroke-width: 0px;"/>
          <polygon points="99.98283 27.84295 81.15263 27.84295 78.09473 24.94599 99.98283 24.94599 99.98283 27.84295" style="fill: #f25d30; stroke-width: 0px;"/>
          <polygon points="99.98283 22.20998 80.6698 22.20998 78.09473 24.94599 99.98283 24.94599 99.98283 22.20998" style="fill: #ff8d55; stroke-width: 0px;"/>
          <polygon points="72.46177 50.05293 72.46177 30.90084 75.35872 27.84295 75.35872 50.05293 72.46177 50.05293" style="fill: #eec1e8; stroke-width: 0px;"/>
          <polygon points="77.93379 50.05293 78.41662 30.7399 75.35872 27.84295 75.35872 50.05293 77.93379 50.05293" style="fill: #7892b4; stroke-width: 0px;"/>
          <rect x="77.93379" y="27.84295" width="22.20998" height="22.20998" style="fill: #d9ebf7; stroke-width: 0px;"/>
          <rect x="50.25179" y="0" width="22.20998" height="22.53187" style="fill: #d9ebf7; stroke-width: 0px;"/>
          <rect x="50.25179" y="27.84295" width="22.20998" height="22.20998" style="fill: #d9ebf7; stroke-width: 0px;"/>
          <polygon points="50.25179 27.84295 69.40387 27.84295 72.46177 25.10694 50.25179 25.26788 50.25179 27.84295" style="fill: #7892b4; stroke-width: 0px;"/>
          <polygon points="50.25179 22.53187 69.70578 22.53187 72.46177 25.10694 50.25179 25.26788 50.25179 22.53187" style="fill: #caa93b; stroke-width: 0px;"/>
          <polygon points="122.56575 274.54483 119.55131 271.8571 122.57701 271.75893 122.60921 268.7992 125.51582 271.80882 128.6413 268.90704 128.40311 271.69616 131.30007 271.8571 128.29206 274.72026 131.20028 277.7701 128.24217 277.69929 128.28884 280.54635 125.34361 277.45787 122.29537 280.28562 122.40481 277.32912 119.55774 277.33717 122.56575 274.54483" style="fill: #fcf9be; stroke-width: 0px;"/>
          <rect x="127.92029" y="277.49006" width="22.20998" height="22.20998" style="fill: #d9ebf7; stroke-width: 0px;"/>
          <polygon points="128.08123 299.70005 127.92029 280.06513 125.34522 277.32912 125.34522 299.70005 128.08123 299.70005" style="fill: #eec1e8; stroke-width: 0px;"/>
          <polygon points="122.44826 299.70005 122.28732 280.22608 125.34522 277.32912 125.34522 299.70005 122.44826 299.70005" style="fill: #c9b1fc; stroke-width: 0px;"/>
          <polygon points="150.13027 271.8571 131.30007 271.8571 128.24217 274.75405 150.13027 274.75405 150.13027 271.8571" style="fill: #eec1e8; stroke-width: 0px;"/>
          <polygon points="150.13027 277.49006 130.81724 277.49006 128.24217 274.75405 150.13027 274.75405 150.13027 277.49006" style="fill: #ff8d55; stroke-width: 0px;"/>
          <polygon points="122.60921 249.64712 122.60921 268.7992 125.50616 271.8571 125.50616 249.64712 122.60921 249.64712" style="fill: #f25d30; stroke-width: 0px;"/>
          <polygon points="128.08123 249.64712 128.56406 268.96014 125.50616 271.8571 125.50616 249.64712 128.08123 249.64712" style="fill: #7892b4; stroke-width: 0px;"/>
          <rect x="128.08123" y="249.64712" width="22.20998" height="22.20998" style="fill: #d9ebf7; stroke-width: 0px;"/>
          <rect x="100.39922" y="277.16818" width="22.20998" height="22.53187" style="fill: #d9ebf7; stroke-width: 0px;"/>
          <rect x="100.39922" y="249.64712" width="22.20998" height="22.20998" style="fill: #d9ebf7; stroke-width: 0px;"/>
          <polygon points="100.39922 271.8571 119.55131 271.8571 122.60921 274.59311 100.39922 274.43217 100.39922 271.8571" style="fill: #c9b1fc; stroke-width: 0px;"/>
          <polygon points="100.39922 277.16818 119.85322 277.16818 122.60921 274.59311 100.39922 274.43217 100.39922 277.16818" style="fill: #caa93b; stroke-width: 0px;"/>
          <polygon points="75.30819 277.31484 72.62046 280.32928 72.52229 277.30357 69.56256 277.27138 72.57218 274.36477 69.6704 271.23928 72.45952 271.47747 72.62046 268.58052 75.48362 271.58852 78.53346 268.6803 78.46265 271.63842 81.30971 271.59175 78.22124 274.53698 81.04899 277.58522 78.09248 277.47578 78.10053 280.32284 75.30819 277.31484" style="fill: #fcf9be; stroke-width: 0px;"/>
          <rect x="78.25343" y="249.75032" width="22.20998" height="22.20998" style="fill: #d9ebf7; stroke-width: 0px;"/>
          <polygon points="100.46341 271.79936 80.8285 271.9603 78.09248 274.53537 100.46341 274.53537 100.46341 271.79936" style="fill: #eec1e8; stroke-width: 0px;"/>
          <polygon points="100.46341 277.43232 80.98944 277.59327 78.09248 274.53537 100.46341 274.53537 100.46341 277.43232" style="fill: #c9b1fc; stroke-width: 0px;"/>
          <polygon points="72.62046 249.75032 72.62046 268.58052 75.51741 271.63842 75.51741 249.75032 72.62046 249.75032" style="fill: #eec1e8; stroke-width: 0px;"/>
          <polygon points="78.25343 249.75032 78.25343 269.06335 75.51741 271.63842 75.51741 249.75032 78.25343 249.75032" style="fill: #ff8d55; stroke-width: 0px;"/>
          <polygon points="50.41048 277.27138 69.56256 277.27138 72.62046 274.37443 50.41048 274.37443 50.41048 277.27138" style="fill: #f25d30; stroke-width: 0px;"/>
          <polygon points="50.41048 271.79936 69.72351 271.31653 72.62046 274.37443 50.41048 274.37443 50.41048 271.79936" style="fill: #7892b4; stroke-width: 0px;"/>
          <rect x="50.41048" y="249.80806" width="22.20998" height="21.9913" style="fill: #d9ebf7; stroke-width: 0px;"/>
          <polygon points="77.86736 299.86099 77.93154 277.27138 100.46341 277.27138 100.39922 299.70005 77.86736 299.86099" style="fill: #d9ebf7; stroke-width: 0px;"/>
          <polygon points="50.3463 299.86099 50.41048 277.27138 72.62046 277.27138 72.55628 299.86099 50.3463 299.86099" style="fill: #d9ebf7; stroke-width: 0px;"/>
          <polygon points="72.55628 299.86099 72.62046 280.32928 75.35647 277.27138 75.13135 299.86099 72.55628 299.86099" style="fill: #c9b1fc; stroke-width: 0px;"/>
          <polygon points="77.86736 299.86099 77.93154 280.02737 75.35647 277.27138 75.13135 299.86099 77.86736 299.86099" style="fill: #caa93b; stroke-width: 0px;"/>
          <polygon points="125.17533 222.03414 122.4876 219.0197 122.38942 222.04541 119.4297 222.0776 122.43931 224.98421 119.53754 228.1097 122.32665 227.87151 122.4876 230.76846 125.35076 227.76046 128.4006 230.66868 128.32978 227.71057 131.17685 227.75723 128.08837 224.812 130.91612 221.76376 127.95962 221.8732 127.96766 219.02614 125.17533 222.03414" style="fill: #fcf9be; stroke-width: 0px;"/>
          <rect x="128.12056" y="227.38868" width="22.20998" height="22.20998" style="fill: #d9ebf7; stroke-width: 0px;"/>
          <polygon points="150.33054 227.54962 130.69563 227.38868 127.95962 224.81361 150.33054 224.81361 150.33054 227.54962" style="fill: #eec1e8; stroke-width: 0px;"/>
          <polygon points="150.33054 221.91666 130.85657 221.75572 127.95962 224.81361 150.33054 224.81361 150.33054 221.91666" style="fill: #c9b1fc; stroke-width: 0px;"/>
          <polygon points="122.4876 249.59866 122.4876 230.76846 125.38455 227.71057 125.38455 249.59866 122.4876 249.59866" style="fill: #eec1e8; stroke-width: 0px;"/>
          <polygon points="128.12056 249.59866 128.12056 230.28564 125.38455 227.71057 125.38455 249.59866 128.12056 249.59866" style="fill: #ff8d55; stroke-width: 0px;"/>
          <polygon points="100.27761 222.0776 119.4297 222.0776 122.4876 224.97455 100.27761 224.97455 100.27761 222.0776" style="fill: #f25d30; stroke-width: 0px;"/>
          <polygon points="100.27761 227.54962 119.59064 228.03245 122.4876 224.97455 100.27761 224.97455 100.27761 227.54962" style="fill: #7892b4; stroke-width: 0px;"/>
          <rect x="100.27761" y="227.54962" width="22.20998" height="22.20998" style="fill: #d9ebf7; stroke-width: 0px;"/>
          <rect x="127.79868" y="199.86762" width="22.53187" height="22.20998" style="fill: #d9ebf7; stroke-width: 0px;"/>
          <rect x="100.27761" y="199.86762" width="22.20998" height="22.20998" style="fill: #d9ebf7; stroke-width: 0px;"/>
          <polygon points="122.4876 199.86762 122.4876 219.0197 125.22361 222.0776 125.06267 199.86762 122.4876 199.86762" style="fill: #c9b1fc; stroke-width: 0px;"/>
          <polygon points="127.79868 199.86762 127.79868 219.32162 125.22361 222.0776 125.06267 199.86762 127.79868 199.86762" style="fill: #caa93b; stroke-width: 0px;"/>
          <polygon points="72.65442 224.95275 69.63999 227.64048 72.66569 227.73866 72.69788 230.69838 75.60449 227.68876 78.72998 230.59054 78.49179 227.80143 81.38874 227.64048 78.38074 224.77732 81.28896 221.72748 78.33085 221.7983 78.37752 218.95123 75.43228 222.03971 72.38404 219.21196 72.49348 222.16846 69.64642 222.16041 72.65442 224.95275" style="fill: #fcf9be; stroke-width: 0px;"/>
          <rect x="78.00896" y="199.79754" width="22.20998" height="22.20998" style="fill: #d9ebf7; stroke-width: 0px;"/>
          <polygon points="78.16991 199.79754 78.00896 219.43245 75.43389 222.16846 75.43389 199.79754 78.16991 199.79754" style="fill: #eec1e8; stroke-width: 0px;"/>
          <polygon points="72.53694 199.79754 72.376 219.27151 75.43389 222.16846 75.43389 199.79754 72.53694 199.79754" style="fill: #c9b1fc; stroke-width: 0px;"/>
          <polygon points="100.21894 227.64048 81.38874 227.64048 78.33085 224.74353 100.21894 224.74353 100.21894 227.64048" style="fill: #f25d30; stroke-width: 0px;"/>
          <polygon points="100.21894 222.00752 80.90592 222.00752 78.33085 224.74353 100.21894 224.74353 100.21894 222.00752" style="fill: #ff8d55; stroke-width: 0px;"/>
          <polygon points="72.69788 249.85047 72.69788 230.69838 75.59483 227.64048 75.59484 249.85047 72.69788 249.85047" style="fill: #eec1e8; stroke-width: 0px;"/>
          <polygon points="78.16991 249.85047 78.65273 230.53744 75.59483 227.64048 75.59484 249.85047 78.16991 249.85047" style="fill: #7892b4; stroke-width: 0px;"/>
          <rect x="78.16991" y="227.64048" width="22.20998" height="22.20998" style="fill: #d9ebf7; stroke-width: 0px;"/>
          <rect x="50.4879" y="199.79754" width="22.20998" height="22.53187" style="fill: #d9ebf7; stroke-width: 0px;"/>
          <rect x="50.4879" y="227.64048" width="22.20998" height="22.20998" style="fill: #d9ebf7; stroke-width: 0px;"/>
          <polygon points="50.4879 227.64048 69.63999 227.64048 72.69788 224.90447 50.4879 225.06541 50.4879 227.64048" style="fill: #7892b4; stroke-width: 0px;"/>
          <polygon points="50.4879 222.3294 69.9419 222.3294 72.69788 224.90447 50.4879 225.06541 50.4879 222.3294" style="fill: #caa93b; stroke-width: 0px;"/>
          <polygon points="75.52943 127.62578 78.21716 130.64022 78.31533 127.61452 81.27505 127.58233 78.26544 124.67572 81.16722 121.55023 78.3781 121.78842 78.21716 118.89146 75.354 121.89947 72.30416 118.99125 72.37497 121.94936 69.52791 121.90269 72.61638 124.84792 69.78863 127.89616 72.74513 127.78672 72.73709 130.63379 75.52943 127.62578" style="fill: #fcf9be; stroke-width: 0px;"/>
          <rect x="50.37421" y="100.06126" width="22.20998" height="22.20998" style="fill: #d9ebf7; stroke-width: 0px;"/>
          <polygon points="50.37421 122.1103 70.00912 122.27124 72.74513 124.84631 50.37421 124.84631 50.37421 122.1103" style="fill: #eec1e8; stroke-width: 0px;"/>
          <polygon points="50.37421 127.74327 69.84818 127.90421 72.74513 124.84631 50.37421 124.84631 50.37421 127.74327" style="fill: #c9b1fc; stroke-width: 0px;"/>
          <polygon points="78.21716 100.06126 78.21716 118.89146 75.3202 121.94936 75.3202 100.06126 78.21716 100.06126" style="fill: #eec1e8; stroke-width: 0px;"/>
          <polygon points="72.58419 100.06126 72.58419 119.37429 75.3202 121.94936 75.3202 100.06126 72.58419 100.06126" style="fill: #ff8d55; stroke-width: 0px;"/>
          <polygon points="100.42714 127.58233 81.27505 127.58233 78.21716 124.68537 100.42714 124.68537 100.42714 127.58233" style="fill: #f25d30; stroke-width: 0px;"/>
          <polygon points="100.42714 122.1103 81.11411 121.62748 78.21716 124.68537 100.42714 124.68537 100.42714 122.1103" style="fill: #7892b4; stroke-width: 0px;"/>
          <rect x="78.21716" y="99.90032" width="22.20998" height="22.20998" style="fill: #d9ebf7; stroke-width: 0px;"/>
          <rect x="50.37421" y="127.58233" width="22.53187" height="22.20998" style="fill: #d9ebf7; stroke-width: 0px;"/>
          <rect x="78.21716" y="127.58233" width="22.20998" height="22.20998" style="fill: #d9ebf7; stroke-width: 0px;"/>
          <polygon points="78.21716 149.79231 78.21716 130.64022 75.48115 127.58233 75.64209 149.79231 78.21716 149.79231" style="fill: #c9b1fc; stroke-width: 0px;"/>
          <polygon points="72.90608 149.79231 72.90608 130.33831 75.48115 127.58233 75.64209 149.79231 72.90608 149.79231" style="fill: #caa93b; stroke-width: 0px;"/>
          <polygon points="72.75942 174.88334 69.74498 177.57107 72.77068 177.66924 72.80287 180.62897 75.70949 177.61935 78.83497 180.52113 78.59678 177.73201 81.49374 177.57107 78.48573 174.70791 81.39395 171.65807 78.43584 171.72888 78.48251 168.88182 75.53728 171.97029 72.48904 169.14254 72.59848 172.09905 69.75141 172.091 72.75942 174.88334" style="fill: #fcf9be; stroke-width: 0px;"/>
          <rect x="78.11396" y="149.72812" width="22.20998" height="22.20998" style="fill: #d9ebf7; stroke-width: 0px;"/>
          <polygon points="78.2749 149.72812 78.11396 169.36303 75.53889 172.09905 75.53889 149.72812 78.2749 149.72812" style="fill: #eec1e8; stroke-width: 0px;"/>
          <polygon points="72.64193 149.72812 72.48099 169.20209 75.53889 172.09905 75.53889 149.72812 72.64193 149.72812" style="fill: #c9b1fc; stroke-width: 0px;"/>
          <polygon points="100.32394 177.57107 81.49374 177.57107 78.43584 174.67412 100.32394 174.67412 100.32394 177.57107" style="fill: #eec1e8; stroke-width: 0px;"/>
          <polygon points="100.32394 171.9381 81.01091 171.9381 78.43584 174.67412 100.32394 174.67412 100.32394 171.9381" style="fill: #ff8d55; stroke-width: 0px;"/>
          <polygon points="72.80287 199.78105 72.80287 180.62897 75.69983 177.57107 75.69983 199.78105 72.80287 199.78105" style="fill: #f25d30; stroke-width: 0px;"/>
          <polygon points="78.2749 199.78105 78.75772 180.46802 75.69983 177.57107 75.69983 199.78105 78.2749 199.78105" style="fill: #7892b4; stroke-width: 0px;"/>
          <rect x="78.2749" y="177.57107" width="21.9913" height="22.20998" style="fill: #d9ebf7; stroke-width: 0px;"/>
          <polygon points="50.21327 172.32417 72.80287 172.25999 72.80287 149.72812 50.37421 149.79231 50.21327 172.32417" style="fill: #d9ebf7; stroke-width: 0px;"/>
          <polygon points="50.21327 199.84524 72.80287 199.78105 72.80287 177.57107 50.21327 177.63525 50.21327 199.84524" style="fill: #d9ebf7; stroke-width: 0px;"/>
          <polygon points="50.21327 177.63525 69.74498 177.57107 72.80287 174.83506 50.21327 175.06018 50.21327 177.63525" style="fill: #c9b1fc; stroke-width: 0px;"/>
          <polygon points="50.21327 172.32417 70.04689 172.25999 72.80287 174.83506 50.21327 175.06018 50.21327 172.32417" style="fill: #caa93b; stroke-width: 0px;"/>
          <polygon points="128.04012 125.0162 131.05455 127.70394 128.02885 127.80211 127.99666 130.76183 125.09005 127.75222 121.96456 130.65399 122.20275 127.86488 119.3058 127.70394 122.3138 124.84077 119.40558 121.79093 122.36369 121.86175 122.31702 119.01468 125.26226 122.10316 128.3105 119.27541 128.20106 122.23191 131.04812 122.22387 128.04012 125.0162" style="fill: #fcf9be; stroke-width: 0px;"/>
          <rect x="100.47559" y="99.86099" width="22.20998" height="22.20998" style="fill: #d9ebf7; stroke-width: 0px;"/>
          <polygon points="122.52463 99.86099 122.68558 119.4959 125.26065 122.23191 125.26065 99.86099 122.52463 99.86099" style="fill: #eec1e8; stroke-width: 0px;"/>
          <polygon points="128.1576 99.86099 128.31854 119.33496 125.26065 122.23191 125.26065 99.86099 128.1576 99.86099" style="fill: #c9b1fc; stroke-width: 0px;"/>
          <polygon points="100.47559 127.70394 119.3058 127.70394 122.36369 124.80698 100.47559 124.80698 100.47559 127.70394" style="fill: #eec1e8; stroke-width: 0px;"/>
          <polygon points="100.47559 122.07097 119.78862 122.07097 122.36369 124.80698 100.47559 124.80698 100.47559 122.07097" style="fill: #ff8d55; stroke-width: 0px;"/>
          <polygon points="127.99666 149.91392 127.99666 130.76183 125.09971 127.70394 125.0997 149.91392 127.99666 149.91392" style="fill: #f25d30; stroke-width: 0px;"/>
          <polygon points="122.52463 149.91392 122.04181 130.60089 125.09971 127.70394 125.0997 149.91392 122.52463 149.91392" style="fill: #7892b4; stroke-width: 0px;"/>
          <rect x="100.31465" y="127.70394" width="22.20998" height="22.20998" style="fill: #d9ebf7; stroke-width: 0px;"/>
          <rect x="127.99666" y="99.86099" width="22.20998" height="22.53187" style="fill: #d9ebf7; stroke-width: 0px;"/>
          <rect x="127.99666" y="127.70394" width="22.20998" height="22.20998" style="fill: #d9ebf7; stroke-width: 0px;"/>
          <polygon points="150.20664 127.70394 131.05455 127.70394 127.99666 124.96792 150.20664 125.12886 150.20664 127.70394" style="fill: #c9b1fc; stroke-width: 0px;"/>
          <polygon points="150.20664 122.39285 130.75264 122.39285 127.99666 124.96792 150.20664 125.12886 150.20664 122.39285" style="fill: #caa93b; stroke-width: 0px;"/>
          <polygon points="125.1215 177.53711 122.43377 180.55155 122.3356 177.52584 119.37588 177.49365 122.38549 174.58704 119.48372 171.46155 122.27283 171.69974 122.43377 168.80279 125.29694 171.81079 128.34678 168.90257 128.27596 171.86068 131.12302 171.81401 128.03455 174.75925 130.8623 177.80749 127.9058 177.69805 127.91384 180.54511 125.1215 177.53711" style="fill: #fcf9be; stroke-width: 0px;"/>
          <rect x="128.06674" y="149.97259" width="22.20998" height="22.20998" style="fill: #d9ebf7; stroke-width: 0px;"/>
          <polygon points="150.27672 172.02163 130.64181 172.18257 127.9058 174.75764 150.27672 174.75764 150.27672 172.02163" style="fill: #eec1e8; stroke-width: 0px;"/>
          <polygon points="150.27672 177.65459 130.80275 177.81553 127.9058 174.75764 150.27672 174.75764 150.27672 177.65459" style="fill: #c9b1fc; stroke-width: 0px;"/>
          <polygon points="122.43377 149.97259 122.43377 168.80279 125.33073 171.86068 125.33073 149.97259 122.43377 149.97259" style="fill: #f25d30; stroke-width: 0px;"/>
          <polygon points="128.06674 149.97259 128.06674 169.28561 125.33073 171.86068 125.33073 149.97259 128.06674 149.97259" style="fill: #ff8d55; stroke-width: 0px;"/>
          <polygon points="100.22379 177.49365 119.37588 177.49365 122.43377 174.5967 100.22379 174.5967 100.22379 177.49365" style="fill: #eec1e8; stroke-width: 0px;"/>
          <polygon points="100.22379 172.02163 119.53682 171.5388 122.43377 174.5967 100.22379 174.5967 100.22379 172.02163" style="fill: #7892b4; stroke-width: 0px;"/>
          <rect x="100.22379" y="149.81164" width="22.20998" height="22.20998" style="fill: #d9ebf7; stroke-width: 0px;"/>
          <rect x="127.74486" y="177.49365" width="22.53187" height="22.20998" style="fill: #d9ebf7; stroke-width: 0px;"/>
          <rect x="100.22379" y="177.49365" width="22.20998" height="22.20998" style="fill: #d9ebf7; stroke-width: 0px;"/>
          <polygon points="122.43377 199.70363 122.43377 180.55155 125.16979 177.49365 125.00884 199.70363 122.43377 199.70363" style="fill: #7892b4; stroke-width: 0px;"/>
          <polygon points="127.74486 199.70363 127.74486 180.24963 125.16979 177.49365 125.00884 199.70363 127.74486 199.70363" style="fill: #caa93b; stroke-width: 0px;"/>
        </g>
        <g>
          <polygon points="22.10927 74.74729 19.09483 72.05956 22.12054 71.96139 22.15273 69.00167 25.05934 72.01128 28.18483 69.1095 27.94664 71.89862 30.84359 72.05956 27.83559 74.92272 30.74381 77.97257 27.7857 77.90175 27.83236 80.74881 24.88713 77.66034 21.83889 80.48809 21.94833 77.53159 19.10127 77.53963 22.10927 74.74729" style="fill: #fcf9be; stroke-width: 0px;"/>
          <rect x="27.46381" y="77.69253" width="22.20998" height="22.20998" style="fill: #d9ebf7; stroke-width: 0px;"/>
          <polygon points="27.62475 99.90251 27.46381 80.2676 24.88874 77.53159 24.88874 99.90251 27.62475 99.90251" style="fill: #eec1e8; stroke-width: 0px;"/>
          <polygon points="21.99179 99.90251 21.83085 80.42854 24.88874 77.53159 24.88874 99.90251 21.99179 99.90251" style="fill: #c9b1fc; stroke-width: 0px;"/>
          <polygon points="49.67379 72.05956 30.84359 72.05956 27.7857 74.95652 49.67379 74.95652 49.67379 72.05956" style="fill: #eec1e8; stroke-width: 0px;"/>
          <polygon points="49.67379 77.69253 30.36077 77.69253 27.7857 74.95652 49.67379 74.95652 49.67379 77.69253" style="fill: #ff8d55; stroke-width: 0px;"/>
          <polygon points="22.15273 49.84958 22.15273 69.00167 25.04968 72.05956 25.04968 49.84958 22.15273 49.84958" style="fill: #f25d30; stroke-width: 0px;"/>
          <polygon points="27.62475 49.84958 28.10758 69.16261 25.04968 72.05956 25.04968 49.84958 27.62475 49.84958" style="fill: #7892b4; stroke-width: 0px;"/>
          <rect x="27.62475" y="49.84958" width="22.20998" height="22.20998" style="fill: #d9ebf7; stroke-width: 0px;"/>
          <rect x="-.05725" y="77.37064" width="22.20998" height="22.53187" style="fill: #d9ebf7; stroke-width: 0px;"/>
          <rect x="-.05725" y="49.84958" width="22.20998" height="22.20998" style="fill: #d9ebf7; stroke-width: 0px;"/>
          <polygon points="-.05725 72.05956 19.09483 72.05956 22.15273 74.79557 -.05725 74.63463 -.05725 72.05956" style="fill: #c9b1fc; stroke-width: 0px;"/>
          <polygon points="-.05725 77.37064 19.39675 77.37064 22.15273 74.79557 -.05725 74.63463 -.05725 77.37064" style="fill: #caa93b; stroke-width: 0px;"/>
          <rect x="-22.20305" y="49.95278" width="22.20998" height="22.20998" style="fill: #d9ebf7; stroke-width: 0px;"/>
          <polygon points=".00693 72.00182 -19.62798 72.16276 -22.36399 74.73783 .00693 74.73783 .00693 72.00182" style="fill: #eec1e8; stroke-width: 0px;"/>
          <polygon points=".00693 77.63479 -19.46704 77.79573 -22.36399 74.73783 .00693 74.73783 .00693 77.63479" style="fill: #c9b1fc; stroke-width: 0px;"/>
          <polygon points="-22.58912 100.06345 -22.52493 77.47385 .00693 77.47385 -.05725 99.90251 -22.58912 100.06345" style="fill: #d9ebf7; stroke-width: 0px;"/>
          <polygon points="24.71885 22.2366 22.03112 19.22217 21.93295 22.24787 18.97322 22.28006 21.98284 25.18667 19.08106 28.31216 21.87018 28.07397 22.03112 30.97092 24.89428 27.96292 27.94412 30.87114 27.87331 27.91303 30.72037 27.9597 27.6319 25.01446 30.45965 21.96622 27.50314 22.07566 27.51119 19.2286 24.71885 22.2366" style="fill: #fcf9be; stroke-width: 0px;"/>
          <rect x="27.66409" y="27.59114" width="22.20998" height="22.20998" style="fill: #d9ebf7; stroke-width: 0px;"/>
          <polygon points="49.87407 27.75209 30.23916 27.59114 27.50314 25.01607 49.87407 25.01607 49.87407 27.75209" style="fill: #eec1e8; stroke-width: 0px;"/>
          <polygon points="49.87407 22.11912 30.4001 21.95818 27.50314 25.01607 49.87407 25.01607 49.87407 22.11912" style="fill: #c9b1fc; stroke-width: 0px;"/>
          <polygon points="22.03112 49.80113 22.03112 30.97092 24.92807 27.91303 24.92807 49.80113 22.03112 49.80113" style="fill: #eec1e8; stroke-width: 0px;"/>
          <polygon points="27.66409 49.80113 27.66409 30.4881 24.92807 27.91303 24.92807 49.80113 27.66409 49.80113" style="fill: #ff8d55; stroke-width: 0px;"/>
          <polygon points="-.17886 22.28006 18.97322 22.28006 22.03112 25.17702 -.17886 25.17702 -.17886 22.28006" style="fill: #f25d30; stroke-width: 0px;"/>
          <polygon points="-.17886 27.75209 19.13417 28.23491 22.03112 25.17702 -.17886 25.17702 -.17886 27.75209" style="fill: #7892b4; stroke-width: 0px;"/>
          <rect x="-.17886" y="27.75209" width="22.20998" height="22.20998" style="fill: #d9ebf7; stroke-width: 0px;"/>
          <rect x="27.3422" y=".07008" width="22.53187" height="22.20998" style="fill: #d9ebf7; stroke-width: 0px;"/>
          <rect x="-.17886" y=".07008" width="22.20998" height="22.20998" style="fill: #d9ebf7; stroke-width: 0px;"/>
          <polygon points="22.03112 .07008 22.03112 19.22217 24.76713 22.28006 24.60619 .07008 22.03112 .07008" style="fill: #c9b1fc; stroke-width: 0px;"/>
          <polygon points="27.3422 .07008 27.3422 19.52408 24.76713 22.28006 24.60619 .07008 27.3422 .07008" style="fill: #caa93b; stroke-width: 0px;"/>
          <polygon points="22.34539 274.54483 19.33095 271.8571 22.35665 271.75893 22.38884 268.7992 25.29545 271.80882 28.42094 268.90704 28.18275 271.69616 31.07971 271.8571 28.0717 274.72026 30.97992 277.7701 28.02181 277.69929 28.06848 280.54635 25.12324 277.45787 22.075 280.28562 22.18444 277.32912 19.33738 277.33717 22.34539 274.54483" style="fill: #fcf9be; stroke-width: 0px;"/>
          <rect x="27.69993" y="277.49006" width="22.20998" height="22.20998" style="fill: #d9ebf7; stroke-width: 0px;"/>
          <polygon points="27.86087 299.70005 27.69993 280.06513 25.12486 277.32912 25.12486 299.70005 27.86087 299.70005" style="fill: #eec1e8; stroke-width: 0px;"/>
          <polygon points="22.2279 299.70005 22.06696 280.22608 25.12486 277.32912 25.12486 299.70005 22.2279 299.70005" style="fill: #c9b1fc; stroke-width: 0px;"/>
          <polygon points="49.90991 271.8571 31.07971 271.8571 28.02181 274.75405 49.90991 274.75405 49.90991 271.8571" style="fill: #eec1e8; stroke-width: 0px;"/>
          <polygon points="49.90991 277.49006 30.59688 277.49006 28.02181 274.75405 49.90991 274.75405 49.90991 277.49006" style="fill: #ff8d55; stroke-width: 0px;"/>
          <polygon points="22.38884 249.64712 22.38884 268.7992 25.2858 271.8571 25.2858 249.64712 22.38884 249.64712" style="fill: #f25d30; stroke-width: 0px;"/>
          <polygon points="27.86087 249.64712 28.34369 268.96014 25.2858 271.8571 25.2858 249.64712 27.86087 249.64712" style="fill: #7892b4; stroke-width: 0px;"/>
          <rect x="27.86087" y="249.64712" width="22.20998" height="22.20998" style="fill: #d9ebf7; stroke-width: 0px;"/>
          <rect x=".17886" y="277.16818" width="22.20998" height="22.53187" style="fill: #d9ebf7; stroke-width: 0px;"/>
          <rect x=".17886" y="249.64712" width="22.20998" height="22.20998" style="fill: #d9ebf7; stroke-width: 0px;"/>
          <polygon points=".17886 271.8571 19.33095 271.8571 22.38884 274.59311 .17886 274.43217 .17886 271.8571" style="fill: #c9b1fc; stroke-width: 0px;"/>
          <polygon points=".17886 277.16818 19.63286 277.16818 22.38884 274.59311 .17886 274.43217 .17886 277.16818" style="fill: #caa93b; stroke-width: 0px;"/>
          <rect x="-21.96694" y="249.75032" width="22.20998" height="22.20998" style="fill: #d9ebf7; stroke-width: 0px;"/>
          <polygon points=".24305 271.79936 -19.39187 271.9603 -22.12788 274.53537 .24305 274.53537 .24305 271.79936" style="fill: #eec1e8; stroke-width: 0px;"/>
          <polygon points=".24305 277.43232 -19.23092 277.59327 -22.12788 274.53537 .24305 274.53537 .24305 277.43232" style="fill: #c9b1fc; stroke-width: 0px;"/>
          <polygon points="-22.353 299.86099 -22.28882 277.27138 .24305 277.27138 .17886 299.70005 -22.353 299.86099" style="fill: #d9ebf7; stroke-width: 0px;"/>
          <polygon points="24.95497 222.03414 22.26723 219.0197 22.16906 222.04541 19.20934 222.0776 22.21895 224.98421 19.31718 228.1097 22.10629 227.87151 22.26723 230.76846 25.1304 227.76046 28.18024 230.66868 28.10942 227.71057 30.95648 227.75723 27.86801 224.812 30.69576 221.76376 27.73926 221.8732 27.7473 219.02614 24.95497 222.03414" style="fill: #fcf9be; stroke-width: 0px;"/>
          <rect x="27.9002" y="227.38868" width="22.20998" height="22.20998" style="fill: #d9ebf7; stroke-width: 0px;"/>
          <polygon points="50.11018 227.54962 30.47527 227.38868 27.73926 224.81361 50.11018 224.81361 50.11018 227.54962" style="fill: #eec1e8; stroke-width: 0px;"/>
          <polygon points="50.11018 221.91666 30.63621 221.75572 27.73926 224.81361 50.11018 224.81361 50.11018 221.91666" style="fill: #c9b1fc; stroke-width: 0px;"/>
          <polygon points="22.26723 249.59866 22.26723 230.76846 25.16419 227.71057 25.16419 249.59866 22.26723 249.59866" style="fill: #eec1e8; stroke-width: 0px;"/>
          <polygon points="27.9002 249.59866 27.9002 230.28564 25.16419 227.71057 25.16419 249.59866 27.9002 249.59866" style="fill: #ff8d55; stroke-width: 0px;"/>
          <polygon points=".05725 222.0776 19.20934 222.0776 22.26723 224.97455 .05725 224.97455 .05725 222.0776" style="fill: #f25d30; stroke-width: 0px;"/>
          <polygon points=".05725 227.54962 19.37028 228.03245 22.26723 224.97455 .05725 224.97455 .05725 227.54962" style="fill: #7892b4; stroke-width: 0px;"/>
          <rect x=".05725" y="227.54962" width="22.20998" height="22.20998" style="fill: #d9ebf7; stroke-width: 0px;"/>
          <rect x="27.57832" y="199.86762" width="22.53187" height="22.20998" style="fill: #d9ebf7; stroke-width: 0px;"/>
          <rect x=".05725" y="199.86762" width="22.20998" height="22.20998" style="fill: #d9ebf7; stroke-width: 0px;"/>
          <polygon points="22.26723 199.86762 22.26723 219.0197 25.00325 222.0776 24.8423 199.86762 22.26723 199.86762" style="fill: #c9b1fc; stroke-width: 0px;"/>
          <polygon points="27.57832 199.86762 27.57832 219.32162 25.00325 222.0776 24.8423 199.86762 27.57832 199.86762" style="fill: #caa93b; stroke-width: 0px;"/>
          <rect x="-22.05046" y="227.64048" width="22.20998" height="22.20998" style="fill: #d9ebf7; stroke-width: 0px;"/>
          <polygon points=".20678 127.58233 -18.94531 127.58233 -22.0032 124.68537 .20678 124.68537 .20678 127.58233" style="fill: #f25d30; stroke-width: 0px;"/>
          <polygon points=".20678 122.1103 -19.10625 121.62748 -22.0032 124.68537 .20678 124.68537 .20678 122.1103" style="fill: #7892b4; stroke-width: 0px;"/>
          <rect x="-22.0032" y="99.90032" width="22.20998" height="22.20998" style="fill: #d9ebf7; stroke-width: 0px;"/>
          <rect x="-22.0032" y="127.58233" width="22.20998" height="22.20998" style="fill: #d9ebf7; stroke-width: 0px;"/>
          <rect x="-22.1064" y="149.72812" width="22.20998" height="22.20998" style="fill: #d9ebf7; stroke-width: 0px;"/>
          <polygon points=".10358 177.57107 -18.72662 177.57107 -21.78452 174.67412 .10358 174.67412 .10358 177.57107" style="fill: #eec1e8; stroke-width: 0px;"/>
          <polygon points=".10358 171.9381 -19.20945 171.9381 -21.78452 174.67412 .10358 174.67412 .10358 171.9381" style="fill: #ff8d55; stroke-width: 0px;"/>
          <rect x="-21.94546" y="177.57107" width="21.9913" height="22.20998" style="fill: #d9ebf7; stroke-width: 0px;"/>
          <polygon points="27.81975 125.0162 30.83419 127.70394 27.80849 127.80211 27.7763 130.76183 24.86969 127.75222 21.7442 130.65399 21.98239 127.86488 19.08543 127.70394 22.09344 124.84077 19.18522 121.79093 22.14333 121.86175 22.09666 119.01468 25.0419 122.10316 28.09014 119.27541 27.9807 122.23191 30.82776 122.22387 27.81975 125.0162" style="fill: #fcf9be; stroke-width: 0px;"/>
          <rect x=".25523" y="99.86099" width="22.20998" height="22.20998" style="fill: #d9ebf7; stroke-width: 0px;"/>
          <polygon points="22.30427 99.86099 22.46521 119.4959 25.04028 122.23191 25.04028 99.86099 22.30427 99.86099" style="fill: #eec1e8; stroke-width: 0px;"/>
          <polygon points="27.93724 99.86099 28.09818 119.33496 25.04028 122.23191 25.04028 99.86099 27.93724 99.86099" style="fill: #c9b1fc; stroke-width: 0px;"/>
          <polygon points=".25523 127.70394 19.08543 127.70394 22.14333 124.80698 .25523 124.80698 .25523 127.70394" style="fill: #eec1e8; stroke-width: 0px;"/>
          <polygon points=".25523 122.07097 19.56826 122.07097 22.14333 124.80698 .25523 124.80698 .25523 122.07097" style="fill: #ff8d55; stroke-width: 0px;"/>
          <polygon points="27.7763 149.91392 27.7763 130.76183 24.87934 127.70394 24.87934 149.91392 27.7763 149.91392" style="fill: #f25d30; stroke-width: 0px;"/>
          <polygon points="22.30427 149.91392 21.82145 130.60089 24.87934 127.70394 24.87934 149.91392 22.30427 149.91392" style="fill: #7892b4; stroke-width: 0px;"/>
          <rect x=".09429" y="127.70394" width="22.20998" height="22.20998" style="fill: #d9ebf7; stroke-width: 0px;"/>
          <rect x="27.7763" y="99.86099" width="22.20998" height="22.53187" style="fill: #d9ebf7; stroke-width: 0px;"/>
          <rect x="27.7763" y="127.70394" width="22.20998" height="22.20998" style="fill: #d9ebf7; stroke-width: 0px;"/>
          <polygon points="49.98628 127.70394 30.83419 127.70394 27.7763 124.96792 49.98628 125.12886 49.98628 127.70394" style="fill: #c9b1fc; stroke-width: 0px;"/>
          <polygon points="49.98628 122.39285 30.53228 122.39285 27.7763 124.96792 49.98628 125.12886 49.98628 122.39285" style="fill: #caa93b; stroke-width: 0px;"/>
          <polygon points="24.90114 177.53711 22.21341 180.55155 22.11524 177.52584 19.15552 177.49365 22.16513 174.58704 19.26335 171.46155 22.05247 171.69974 22.21341 168.80279 25.07657 171.81079 28.12641 168.90257 28.0556 171.86068 30.90266 171.81401 27.81419 174.75925 30.64194 177.80749 27.68544 177.69805 27.69348 180.54511 24.90114 177.53711" style="fill: #fcf9be; stroke-width: 0px;"/>
          <rect x="27.84638" y="149.97259" width="22.20998" height="22.20998" style="fill: #d9ebf7; stroke-width: 0px;"/>
          <polygon points="50.05636 172.02163 30.42145 172.18257 27.68544 174.75764 50.05636 174.75764 50.05636 172.02163" style="fill: #eec1e8; stroke-width: 0px;"/>
          <polygon points="50.05636 177.65459 30.58239 177.81553 27.68544 174.75764 50.05636 174.75764 50.05636 177.65459" style="fill: #c9b1fc; stroke-width: 0px;"/>
          <polygon points="22.21341 149.97259 22.21341 168.80279 25.11037 171.86068 25.11037 149.97259 22.21341 149.97259" style="fill: #f25d30; stroke-width: 0px;"/>
          <polygon points="27.84638 149.97259 27.84638 169.28561 25.11037 171.86068 25.11037 149.97259 27.84638 149.97259" style="fill: #ff8d55; stroke-width: 0px;"/>
          <polygon points=".00343 177.49365 19.15552 177.49365 22.21341 174.5967 .00343 174.5967 .00343 177.49365" style="fill: #eec1e8; stroke-width: 0px;"/>
          <polygon points=".00343 172.02163 19.31646 171.5388 22.21341 174.5967 .00343 174.5967 .00343 172.02163" style="fill: #7892b4; stroke-width: 0px;"/>
          <rect x=".00343" y="149.81164" width="22.20998" height="22.20998" style="fill: #d9ebf7; stroke-width: 0px;"/>
          <rect x="27.52449" y="177.49365" width="22.53187" height="22.20998" style="fill: #d9ebf7; stroke-width: 0px;"/>
          <rect x=".00343" y="177.49365" width="22.20998" height="22.20998" style="fill: #d9ebf7; stroke-width: 0px;"/>
          <polygon points="22.21341 199.70363 22.21341 180.55155 24.94942 177.49365 24.78848 199.70363 22.21341 199.70363" style="fill: #7892b4; stroke-width: 0px;"/>
          <polygon points="27.52449 199.70363 27.52449 180.24963 24.94942 177.49365 24.78848 199.70363 27.52449 199.70363" style="fill: #caa93b; stroke-width: 0px;"/>
        </g>
      </g>
    </pattern>
  </defs>
  <g id="uuid-1dbd3da9-6181-45db-9348-e80674d2c225" data-name="Layer 1">
    <rect width="1280" height="799" style="fill: url(#uuid-ee3620df-cf30-48a6-99e8-710403262d48); stroke-width: 0px;"/>
  </g>
</svg>