<?xml version="1.0" encoding="UTF-8"?>
<svg id="uuid-1fb47776-1d2c-41fb-98f0-427c82c9ed75" data-name="Layer 2" xmlns="http://www.w3.org/2000/svg" viewBox="0 0 1242.68452 622.07093">
  <g id="uuid-6edd423d-b906-46da-b8ce-0d35cb6c70f7" data-name="Layer 1">
    <g>
      <g>
        <polygon points="157.29999 449.55653 174 430.82654 174.60999 449.62653 193 449.82654 174.29999 467.88654 192.32996 487.30653 175 485.82654 174 503.82654 156.20996 485.13654 137.26001 503.20655 137.70001 484.82654 120.01001 485.11652 139.20001 466.81654 121.63 447.87653 140 448.55653 139.95001 430.86652 157.29999 449.55653" style="fill: #dfd3d1; stroke-width: 0px;"/>
        <rect x="1" y="482.82654" width="138" height="138" style="fill: #d9ebf7; stroke-width: 0px;"/>
        <polygon points="1 483.82654 123 482.82654 140 466.82654 1 466.82654 1 483.82654" style="fill: #eec1e8; stroke-width: 0px;"/>
        <polygon points="1 448.82654 122 447.82654 140 466.82654 1 466.82654 1 448.82654" style="fill: #c9b1fc; stroke-width: 0px;"/>
        <polygon points="174 620.82654 174 503.82654 156 484.82654 156 620.82654 174 620.82654" style="fill: #eec1e8; stroke-width: 0px;"/>
        <polygon points="139 620.82654 139 500.82654 156 484.82654 156 620.82654 139 620.82654" style="fill: #ff8d55; stroke-width: 0px;"/>
        <polygon points="312 449.82654 193 449.82654 174 467.82654 312 467.82654 312 449.82654" style="fill: #f25d30; stroke-width: 0px;"/>
        <polygon points="312 483.82654 192 486.82654 174 467.82654 312 467.82654 312 483.82654" style="fill: #7892b4; stroke-width: 0px;"/>
        <rect x="174" y="483.82654" width="138" height="138" style="fill: #d9ebf7; stroke-width: 0px;"/>
        <rect x="1" y="311.82654" width="140" height="138" style="fill: #d9ebf7; stroke-width: 0px;"/>
        <rect x="174" y="311.82654" width="138" height="138" style="fill: #d9ebf7; stroke-width: 0px;"/>
        <polygon points="174 311.82654 174 430.82654 157 449.82654 158 311.82654 174 311.82654" style="fill: #c9b1fc; stroke-width: 0px;"/>
        <polygon points="141 311.82655 141 432.70246 157 449.82654 158 311.82655 141 311.82655" style="fill: #caa93b; stroke-width: 0px;"/>
      </g>
      <g>
        <polygon points="140.08875 155.92536 121.35877 139.22534 140.15875 138.61536 140.35877 120.22534 158.41876 138.92536 177.83875 120.89539 176.35877 138.22534 194.35877 139.22534 175.66876 157.01538 193.73877 175.96534 175.35877 175.52533 175.64874 193.21534 157.34876 174.02533 138.40875 191.59534 139.08875 173.22534 121.39874 173.27533 140.08875 155.92536" style="fill: #dfd3d1; stroke-width: 0px;"/>
        <rect x="173.35877" y="174.22534" width="138" height="138" style="fill: #d9ebf7; stroke-width: 0px;"/>
        <polygon points="174.35877 312.22534 173.35877 190.22534 157.35877 173.22534 157.35877 312.22534 174.35877 312.22534" style="fill: #eec1e8; stroke-width: 0px;"/>
        <polygon points="139.35877 312.22534 138.35877 191.22534 157.35877 173.22534 157.35877 312.22534 139.35877 312.22534" style="fill: #c9b1fc; stroke-width: 0px;"/>
        <polygon points="311.35877 139.22534 194.35877 139.22534 175.35877 157.22534 311.35877 157.22534 311.35877 139.22534" style="fill: #eec1e8; stroke-width: 0px;"/>
        <polygon points="311.35877 174.22534 191.35877 174.22534 175.35877 157.22534 311.35877 157.22534 311.35877 174.22534" style="fill: #ff8d55; stroke-width: 0px;"/>
        <polygon points="140.35877 1.22534 140.35877 120.22534 158.35876 139.22534 158.35877 1.22534 140.35877 1.22534" style="fill: #f25d30; stroke-width: 0px;"/>
        <polygon points="174.35877 1.22535 177.35877 121.22535 158.35876 139.22534 158.35877 1.22534 174.35877 1.22535" style="fill: #7892b4; stroke-width: 0px;"/>
        <rect x="174.35877" y="1.22534" width="136.64123" height="138" style="fill: #d9ebf7; stroke-width: 0px;"/>
        <polygon points="0 171.82654 140.35877 172.22534 140.35877 312.22534 1 311.82654 0 171.82654" style="fill: #d9ebf7; stroke-width: 0px;"/>
        <polygon points="0 .82654 140.35877 1.22534 140.35877 139.22534 0 138.82654 0 .82654" style="fill: #d9ebf7; stroke-width: 0px;"/>
        <polygon points="0 138.82654 121.35877 139.22534 140.35877 156.22534 0 154.82654 0 138.82654" style="fill: #c9b1fc; stroke-width: 0px;"/>
        <polygon points="0 171.82654 123.23468 172.22535 140.35877 156.22535 0 154.82654 0 171.82654" style="fill: #caa93b; stroke-width: 0px;"/>
      </g>
      <g>
        <polygon points="483.57109 465.77094 502.30107 449.07093 483.50108 448.46095 483.30107 430.07093 465.24107 448.77094 445.82109 430.74098 447.30107 448.07093 429.30107 449.07093 447.99107 466.86097 429.92106 485.81092 448.30107 485.37092 448.01109 503.06092 466.31108 483.87092 485.25108 501.44093 484.57109 483.07093 502.26109 483.12092 483.57109 465.77094" style="fill: #dfd3d1; stroke-width: 0px;"/>
        <rect x="312.30107" y="484.07093" width="138" height="138" style="fill: #d9ebf7; stroke-width: 0px;"/>
        <polygon points="449.30107 622.07093 450.30107 500.07093 466.30107 483.07093 466.30107 622.07093 449.30107 622.07093" style="fill: #eec1e8; stroke-width: 0px;"/>
        <polygon points="484.30107 622.07093 485.30107 501.07093 466.30107 483.07093 466.30107 622.07093 484.30107 622.07093" style="fill: #c9b1fc; stroke-width: 0px;"/>
        <polygon points="312.30107 449.07093 429.30107 449.07093 448.30107 467.07093 312.30107 467.07093 312.30107 449.07093" style="fill: #eec1e8; stroke-width: 0px;"/>
        <polygon points="312.30107 484.07093 432.30107 484.07093 448.30107 467.07093 312.30107 467.07093 312.30107 484.07093" style="fill: #ff8d55; stroke-width: 0px;"/>
        <polygon points="483.30107 311.07093 483.30107 430.07093 465.30107 449.07093 465.30107 311.07093 483.30107 311.07093" style="fill: #f25d30; stroke-width: 0px;"/>
        <polygon points="449.30107 311.07093 446.30107 431.07093 465.30107 449.07093 465.30107 311.07093 449.30107 311.07093" style="fill: #7892b4; stroke-width: 0px;"/>
        <rect x="311.30107" y="311.07093" width="138" height="138" style="fill: #d9ebf7; stroke-width: 0px;"/>
        <rect x="483.30107" y="482.07093" width="138" height="140" style="fill: #d9ebf7; stroke-width: 0px;"/>
        <rect x="483.30107" y="311.07093" width="138" height="138" style="fill: #d9ebf7; stroke-width: 0px;"/>
        <polygon points="621.30107 449.07093 502.30107 449.07093 483.30107 466.07093 621.30107 465.07093 621.30107 449.07093" style="fill: #c9b1fc; stroke-width: 0px;"/>
        <polygon points="621.30107 482.07093 500.42516 482.07093 483.30107 466.07093 621.30107 465.07093 621.30107 482.07093" style="fill: #caa93b; stroke-width: 0px;"/>
      </g>
      <g>
        <polygon points="465.43652 139.43637 448.73651 120.70639 448.12652 139.50638 429.73651 139.70639 448.43652 157.76639 430.40655 177.18637 447.73651 175.70639 448.73651 193.70639 466.52655 175.01639 485.4765 193.0864 485.0365 174.70639 502.7265 174.99637 483.5365 156.69638 501.10651 137.75638 482.73651 138.43637 482.7865 120.74637 465.43652 139.43637" style="fill: #dfd3d1; stroke-width: 0px;"/>
        <rect x="483.73651" y="172.70639" width="138" height="138" style="fill: #d9ebf7; stroke-width: 0px;"/>
        <polygon points="621.73651 173.70639 499.73651 172.70639 482.73651 156.70639 621.73651 156.70639 621.73651 173.70639" style="fill: #eec1e8; stroke-width: 0px;"/>
        <polygon points="621.73651 138.70639 500.73651 137.70639 482.73651 156.70639 621.73651 156.70639 621.73651 138.70639" style="fill: #c9b1fc; stroke-width: 0px;"/>
        <polygon points="448.73651 310.70639 448.73651 193.70639 466.73651 174.70639 466.73651 310.70639 448.73651 310.70639" style="fill: #f25d30; stroke-width: 0px;"/>
        <polygon points="483.73651 310.70639 483.73651 190.70639 466.73651 174.70639 466.73651 310.70639 483.73651 310.70639" style="fill: #ff8d55; stroke-width: 0px;"/>
        <polygon points="310.73651 139.70639 429.73651 139.70639 448.73651 157.70639 310.73651 157.70639 310.73651 139.70639" style="fill: #eec1e8; stroke-width: 0px;"/>
        <polygon points="310.73651 173.70639 430.73651 176.70639 448.73651 157.70639 310.73651 157.70639 310.73651 173.70639" style="fill: #7892b4; stroke-width: 0px;"/>
        <rect x="310.73651" y="173.70639" width="138" height="138" style="fill: #d9ebf7; stroke-width: 0px;"/>
        <rect x="481.73651" y="1.70639" width="140" height="138" style="fill: #d9ebf7; stroke-width: 0px;"/>
        <rect x="310.73651" y="1.70639" width="138" height="138" style="fill: #d9ebf7; stroke-width: 0px;"/>
        <polygon points="448.73651 1.70639 448.73651 120.70639 465.73651 139.70639 464.73651 1.70639 448.73651 1.70639" style="fill: #7892b4; stroke-width: 0px;"/>
        <polygon points="481.73651 1.7064 481.73651 122.58231 465.73651 139.70639 464.73651 1.7064 481.73651 1.7064" style="fill: #caa93b; stroke-width: 0px;"/>
      </g>
    </g>
    <g>
      <g>
        <polygon points="1070.17012 157.29999 1051.44014 174 1070.24013 174.60999 1070.44014 193 1088.50014 174.29999 1107.92012 192.32996 1106.44014 175 1124.44014 174 1105.75014 156.20996 1123.82014 137.26001 1105.44014 137.70001 1105.73012 120.01001 1087.43013 139.20001 1068.49013 121.63 1069.17012 140 1051.48012 139.95001 1070.17012 157.29999" style="fill: #dfd3d1; stroke-width: 0px;"/>
        <rect x="1103.44014" y="1" width="138" height="138" style="fill: #d9ebf7; stroke-width: 0px;"/>
        <polygon points="1104.44014 1 1103.44014 123 1087.44014 140 1087.44014 1 1104.44014 1" style="fill: #eec1e8; stroke-width: 0px;"/>
        <polygon points="1069.44014 1 1068.44014 122 1087.44014 140 1087.44014 1 1069.44014 1" style="fill: #c9b1fc; stroke-width: 0px;"/>
        <polygon points="1241.44014 174 1124.44014 174 1105.44014 156 1241.44014 156 1241.44014 174" style="fill: #eec1e8; stroke-width: 0px;"/>
        <polygon points="1241.44014 139 1121.44014 139 1105.44014 156 1241.44014 156 1241.44014 139" style="fill: #ff8d55; stroke-width: 0px;"/>
        <polygon points="1070.44014 312 1070.44014 193 1088.44013 174 1088.44014 312 1070.44014 312" style="fill: #f25d30; stroke-width: 0px;"/>
        <polygon points="1104.44014 312 1107.44014 192 1088.44013 174 1088.44014 312 1104.44014 312" style="fill: #7892b4; stroke-width: 0px;"/>
        <rect x="1104.44014" y="174" width="138" height="138" style="fill: #d9ebf7; stroke-width: 0px;"/>
        <rect x="932.44014" y="1" width="138" height="140" style="fill: #d9ebf7; stroke-width: 0px;"/>
        <rect x="932.44014" y="174" width="138" height="138" style="fill: #d9ebf7; stroke-width: 0px;"/>
        <polygon points="932.44014 174 1051.44014 174 1070.44014 157 932.44014 158 932.44014 174" style="fill: #c9b1fc; stroke-width: 0px;"/>
        <polygon points="932.44014 141 1053.31605 141 1070.44014 157 932.44014 158 932.44014 141" style="fill: #caa93b; stroke-width: 0px;"/>
      </g>
      <g>
        <polygon points="776.53895 140.08875 759.83894 121.35877 759.22895 140.15875 740.83894 140.35877 759.53895 158.41876 741.50898 177.83875 758.83894 176.35877 759.83894 194.35877 777.62898 175.66876 796.57893 193.73877 796.13893 175.35877 813.82893 175.64874 794.63893 157.34876 812.20893 138.40875 793.83894 139.08875 793.88893 121.39874 776.53895 140.08875" style="fill: #dfd3d1; stroke-width: 0px;"/>
        <rect x="794.83894" y="173.35877" width="138" height="138" style="fill: #d9ebf7; stroke-width: 0px;"/>
        <polygon points="932.83894 174.35877 810.83894 173.35877 793.83894 157.35877 932.83894 157.35877 932.83894 174.35877" style="fill: #eec1e8; stroke-width: 0px;"/>
        <polygon points="932.83894 139.35877 811.83894 138.35877 793.83894 157.35877 932.83894 157.35877 932.83894 139.35877" style="fill: #c9b1fc; stroke-width: 0px;"/>
        <polygon points="759.83894 311.35877 759.83894 194.35877 777.83894 175.35877 777.83894 311.35877 759.83894 311.35877" style="fill: #eec1e8; stroke-width: 0px;"/>
        <polygon points="794.83894 311.35877 794.83894 191.35877 777.83894 175.35877 777.83894 311.35877 794.83894 311.35877" style="fill: #ff8d55; stroke-width: 0px;"/>
        <polygon points="621.83894 140.35877 740.83894 140.35877 759.83894 158.35876 621.83894 158.35877 621.83894 140.35877" style="fill: #f25d30; stroke-width: 0px;"/>
        <polygon points="621.83894 174.35877 741.83894 177.35877 759.83894 158.35876 621.83894 158.35877 621.83894 174.35877" style="fill: #7892b4; stroke-width: 0px;"/>
        <rect x="621.83894" y="174.35877" width="138" height="136.64123" style="fill: #d9ebf7; stroke-width: 0px;"/>
        <polygon points="792.44014 0 792.83894 140.35877 932.83894 140.35877 932.44014 1 792.44014 0" style="fill: #d9ebf7; stroke-width: 0px;"/>
        <polygon points="621.44014 0 621.83894 140.35877 759.83894 140.35877 759.44014 0 621.44014 0" style="fill: #d9ebf7; stroke-width: 0px;"/>
        <polygon points="759.44014 0 759.83894 121.35877 776.83894 140.35877 775.44014 0 759.44014 0" style="fill: #c9b1fc; stroke-width: 0px;"/>
        <polygon points="792.44014 0 792.83894 123.23468 776.83894 140.35877 775.44014 0 792.44014 0" style="fill: #caa93b; stroke-width: 0px;"/>
      </g>
      <g>
        <polygon points="1086.38454 483.57109 1069.68452 502.30107 1069.07454 483.50108 1050.68452 483.30107 1069.38454 465.24107 1051.35457 445.82109 1068.68452 447.30107 1069.68452 429.30107 1087.47456 447.99107 1106.42451 429.92106 1105.98451 448.30107 1123.67451 448.01109 1104.48451 466.31108 1122.05452 485.25108 1103.68452 484.57109 1103.73451 502.26109 1086.38454 483.57109" style="fill: #dfd3d1; stroke-width: 0px;"/>
        <rect x="1104.68452" y="312.30107" width="138" height="138" style="fill: #d9ebf7; stroke-width: 0px;"/>
        <polygon points="1242.68452 449.30107 1120.68452 450.30107 1103.68452 466.30107 1242.68452 466.30107 1242.68452 449.30107" style="fill: #eec1e8; stroke-width: 0px;"/>
        <polygon points="1242.68452 484.30107 1121.68452 485.30107 1103.68452 466.30107 1242.68452 466.30107 1242.68452 484.30107" style="fill: #c9b1fc; stroke-width: 0px;"/>
        <polygon points="1069.68452 312.30107 1069.68452 429.30107 1087.68452 448.30107 1087.68452 312.30107 1069.68452 312.30107" style="fill: #eec1e8; stroke-width: 0px;"/>
        <polygon points="1104.68452 312.30107 1104.68452 432.30107 1087.68452 448.30107 1087.68452 312.30107 1104.68452 312.30107" style="fill: #ff8d55; stroke-width: 0px;"/>
        <polygon points="931.68452 483.30107 1050.68452 483.30107 1069.68452 465.30107 931.68452 465.30107 931.68452 483.30107" style="fill: #f25d30; stroke-width: 0px;"/>
        <polygon points="931.68453 449.30107 1051.68453 446.30107 1069.68452 465.30107 931.68452 465.30107 931.68453 449.30107" style="fill: #7892b4; stroke-width: 0px;"/>
        <rect x="931.68452" y="311.30107" width="138" height="138" style="fill: #d9ebf7; stroke-width: 0px;"/>
        <rect x="1102.68452" y="483.30107" width="140" height="138" style="fill: #d9ebf7; stroke-width: 0px;"/>
        <rect x="931.68452" y="483.30107" width="138" height="138" style="fill: #d9ebf7; stroke-width: 0px;"/>
        <polygon points="1069.68452 621.30107 1069.68452 502.30107 1086.68452 483.30107 1085.68452 621.30107 1069.68452 621.30107" style="fill: #c9b1fc; stroke-width: 0px;"/>
        <polygon points="1102.68452 621.30107 1102.68452 500.42516 1086.68452 483.30107 1085.68452 621.30107 1102.68452 621.30107" style="fill: #caa93b; stroke-width: 0px;"/>
      </g>
      <g>
        <polygon points="760.04997 465.43652 741.31999 448.73651 760.11998 448.12652 760.31999 429.73651 778.37999 448.43652 797.79997 430.40655 796.31999 447.73651 814.31999 448.73651 795.62999 466.52655 813.69999 485.4765 795.31999 485.0365 795.60997 502.7265 777.30998 483.5365 758.36998 501.10651 759.04997 482.73651 741.35997 482.7865 760.04997 465.43652" style="fill: #dfd3d1; stroke-width: 0px;"/>
        <rect x="793.31999" y="483.73651" width="138" height="138" style="fill: #d9ebf7; stroke-width: 0px;"/>
        <polygon points="794.31999 621.73651 793.31999 499.73651 777.31999 482.73651 777.31999 621.73651 794.31999 621.73651" style="fill: #eec1e8; stroke-width: 0px;"/>
        <polygon points="759.31999 621.73651 758.31999 500.73651 777.31999 482.73651 777.31999 621.73651 759.31999 621.73651" style="fill: #c9b1fc; stroke-width: 0px;"/>
        <polygon points="931.31999 448.73651 814.31999 448.73651 795.31999 466.73651 931.31999 466.73651 931.31999 448.73651" style="fill: #f25d30; stroke-width: 0px;"/>
        <polygon points="931.31999 483.73651 811.31999 483.73651 795.31999 466.73651 931.31999 466.73651 931.31999 483.73651" style="fill: #ff8d55; stroke-width: 0px;"/>
        <polygon points="760.31999 310.73651 760.31999 429.73651 778.31998 448.73651 778.31999 310.73651 760.31999 310.73651" style="fill: #eec1e8; stroke-width: 0px;"/>
        <polygon points="794.31999 310.73651 797.31999 430.73651 778.31998 448.73651 778.31999 310.73651 794.31999 310.73651" style="fill: #7892b4; stroke-width: 0px;"/>
        <rect x="794.31999" y="310.73651" width="138" height="138" style="fill: #d9ebf7; stroke-width: 0px;"/>
        <rect x="622.31999" y="481.73651" width="138" height="140" style="fill: #d9ebf7; stroke-width: 0px;"/>
        <rect x="622.31999" y="310.73651" width="138" height="138" style="fill: #d9ebf7; stroke-width: 0px;"/>
        <polygon points="622.31999 448.73651 741.31999 448.73651 760.31999 465.73651 622.31999 464.73651 622.31999 448.73651" style="fill: #7892b4; stroke-width: 0px;"/>
        <polygon points="622.31999 481.73651 743.1959 481.73651 760.31999 465.73651 622.31999 464.73651 622.31999 481.73651" style="fill: #caa93b; stroke-width: 0px;"/>
      </g>
    </g>
  </g>
</svg>